<?xml version="1.0" encoding="iso-8859-1"?>
<!-- Generator: Adobe Illustrator 19.0.0, SVG Export Plug-In . SVG Version: 6.00 Build 0)  -->
<svg version="1.1" id="Layer_1" xmlns="http://www.w3.org/2000/svg" xmlns:xlink="http://www.w3.org/1999/xlink" x="0px" y="0px"
	 viewBox="0 0 512.001 512.001" style="enable-background:new 0 0 512.001 512.001;" xml:space="preserve">
<g>
	<path style="fill:#3C1146;" d="M364.971,137.782c-24.971,0-45.284-20.315-45.284-45.285c0-29.867,32.968-56.219,36.728-59.125
		c5.04-3.897,12.075-3.896,17.111,0c3.76,2.907,36.73,29.258,36.73,59.125C410.257,117.467,389.941,137.782,364.971,137.782z
		 M364.971,63.223c-8.223,8.31-17.306,20.084-17.306,29.274c0,9.543,7.764,17.307,17.306,17.307c9.543,0,17.307-7.764,17.307-17.307
		C382.279,83.31,373.199,71.536,364.971,63.223z"/>
	<path style="fill:#3C1146;" d="M256,135.527c-24.971,0-45.285-20.315-45.285-45.285c0-29.867,32.969-56.219,36.73-59.125
		c5.039-3.896,12.074-3.896,17.111,0c3.76,2.907,36.73,29.258,36.73,59.125C301.285,115.212,280.97,135.527,256,135.527z
		 M255.999,60.969c-8.223,8.308-17.306,20.086-17.306,29.274c0,9.543,7.764,17.307,17.307,17.307s17.307-7.764,17.307-17.307
		C273.307,81.056,264.228,69.283,255.999,60.969z"/>
	<path style="fill:#3C1146;" d="M147.029,137.782c-24.97,0-45.285-20.315-45.285-45.285c0-29.867,32.969-56.219,36.73-59.125
		c5.04-3.897,12.075-3.896,17.111,0c3.76,2.907,36.728,29.258,36.728,59.125C192.313,117.467,171.998,137.782,147.029,137.782z
		 M147.028,63.223c-8.223,8.31-17.307,20.086-17.307,29.274c0,9.543,7.764,17.307,17.307,17.307c9.542,0,17.306-7.764,17.306-17.307
		C164.335,83.31,155.255,71.536,147.028,63.223z"/>
	<path style="fill:#3C1146;" d="M62.533,425.666c-7.725,0-13.989-6.263-13.989-13.989V226.069c0-11.25,9.152-20.4,20.402-20.4
		h374.11c11.25,0,20.402,9.152,20.402,20.4v132.004c0,7.726-6.264,13.989-13.989,13.989c-7.725,0-13.989-6.263-13.989-13.989
		V233.646H76.522v178.03C76.522,419.403,70.259,425.666,62.533,425.666z"/>
</g>
<path style="fill:#D4A8B4;" d="M49.36,177.599v74.427c0,15.461,12.534,27.995,27.995,27.995l0,0c3.58,0,6.534-2.697,6.983-6.249
	c3.071-24.307,23.822-43.106,48.963-43.106c23.565,0,43.272,16.514,48.18,38.601c1.386,6.236,6.782,10.753,13.169,10.753l0,0
	c6.387,0,11.784-4.518,13.169-10.753c4.907-22.086,24.615-38.601,48.18-38.601c23.565,0,43.272,16.514,48.18,38.601
	c1.386,6.236,6.782,10.753,13.169,10.753l0,0c6.387,0,11.784-4.518,13.169-10.753c4.907-22.086,24.615-38.601,48.18-38.601
	c25.141,0,45.891,18.799,48.963,43.106c0.449,3.552,3.404,6.249,6.983,6.249l0,0c15.461,0,27.995-12.534,27.995-27.995v-74.427
	c0-26.835-21.754-48.59-48.59-48.59H97.949C71.113,129.009,49.36,150.764,49.36,177.599z"/>
<g>
	<path style="fill:#3C1146;" d="M434.646,294.009c-10.565,0-19.533-7.949-20.862-18.488c-2.224-17.597-17.307-30.867-35.085-30.867
		c-16.446,0-30.965,11.628-34.525,27.647c-2.838,12.782-13.87,21.708-26.825,21.708s-23.986-8.928-26.825-21.71
		c-3.56-16.019-18.079-27.645-34.525-27.645s-30.965,11.628-34.525,27.647c-2.838,12.782-13.87,21.708-26.825,21.708
		c-12.955,0-23.986-8.928-26.825-21.71c-3.56-16.019-18.079-27.645-34.525-27.645c-17.777,0-32.86,13.271-35.085,30.87
		c-1.329,10.537-10.297,18.485-20.862,18.485c-23.151,0-41.984-18.833-41.984-41.984v-74.427c0-34.505,28.072-62.577,62.579-62.577
		h316.101c34.507,0,62.579,28.072,62.579,62.577v74.427C476.63,275.175,457.797,294.009,434.646,294.009z M97.95,143
		c-19.08,0-34.601,15.521-34.601,34.599v74.427c0,5.743,3.475,10.69,8.433,12.849c6.853-27.931,32.133-48.199,61.52-48.199
		c28.752,0,54.222,19.863,61.349,47.526c7.141-27.673,32.606-47.526,61.349-47.526c28.752,0,54.222,19.863,61.349,47.526
		c7.141-27.673,32.606-47.526,61.349-47.526c29.387,0,54.665,20.27,61.52,48.199c4.959-2.159,8.433-7.106,8.433-12.849v-74.427
		c0-19.078-15.522-34.599-34.601-34.599H97.95z"/>
	<path style="fill:#3C1146;" d="M471.24,483.807h-65.557c-7.725,0-13.989-6.263-13.989-13.989c0-7.726,6.264-13.989,13.989-13.989
		h65.557c7.048,0,12.782-5.734,12.782-12.782c0-7.048-5.734-12.78-12.782-12.78H40.76c-7.048,0-12.782,5.734-12.782,12.78
		c0,7.048,5.734,12.782,12.782,12.782h286.584c7.725,0,13.989,6.263,13.989,13.989c0,7.726-6.264,13.989-13.989,13.989H40.76
		c-22.476,0-40.76-18.285-40.76-40.76c0-22.475,18.284-40.759,40.76-40.759h430.481c22.475,0,40.76,18.284,40.76,40.759
		C512.001,465.522,493.716,483.807,471.24,483.807z"/>
</g>
<g>
</g>
<g>
</g>
<g>
</g>
<g>
</g>
<g>
</g>
<g>
</g>
<g>
</g>
<g>
</g>
<g>
</g>
<g>
</g>
<g>
</g>
<g>
</g>
<g>
</g>
<g>
</g>
<g>
</g>
</svg>
