<?xml version="1.0" encoding="iso-8859-1"?>
<!-- Generator: Adobe Illustrator 19.0.0, SVG Export Plug-In . SVG Version: 6.00 Build 0)  -->
<svg version="1.1" id="Layer_1" xmlns="http://www.w3.org/2000/svg" xmlns:xlink="http://www.w3.org/1999/xlink" x="0px" y="0px"
	 viewBox="0 0 512 512" style="enable-background:new 0 0 512 512;" xml:space="preserve">
<g>
	<g>
		<g>
			<path d="M501.508,441.721h-19.934v-31.475c0-5.795-4.697-10.492-10.492-10.492h-41.967c-5.795,0-10.492,4.697-10.492,10.492
				v31.475h-21.745c-5.107-35.542-35.748-62.951-72.681-62.951H307.41c0,0-0.077-69.528-0.219-70.219
				c1.255-15.554-4.041-31.543-15.914-43.416l-55.456-55.457l65.663-65.663c3.25-3.25,5.892-6.883,7.928-10.753h65.147
				c5.795,0,10.492-4.697,10.492-10.492V112.28h24.481v10.508c0,3.749,2,7.212,5.246,9.086l36.372,20.998
				c1.623,0.937,3.434,1.406,5.246,1.406s3.623-0.469,5.246-1.406l36.372-20.999c5.018-2.897,6.738-9.314,3.84-14.332
				c-2.897-5.018-9.315-6.738-14.332-3.84l-31.126,17.969l-25.88-14.941V86.844l25.88-14.941l31.126,17.97
				c5.019,2.898,11.436,1.178,14.332-3.84c2.898-5.018,1.178-11.435-3.84-14.332l-36.372-20.999c-3.246-1.875-7.246-1.875-10.492,0
				l-36.372,20.999c-3.246,1.874-5.246,5.337-5.246,9.086v10.508h-24.481V80.803c0-5.795-4.697-10.492-10.492-10.492h-90.158
				c-15.593-5.313-33.562-1.769-45.976,10.644l-76.329,76.33c-28.253,5.003-49.786,29.719-49.786,59.387
				c0,19.848,9.639,37.484,24.477,48.485c1.863,2.7,3.988,5.271,6.388,7.672l57.459,57.458v48.483h-12.83
				c-36.933,0-67.573,27.409-72.681,62.951H93.377v-31.475c0-5.795-4.697-10.492-10.492-10.492H40.918
				c-5.795,0-10.492,4.697-10.492,10.492v31.475H10.492C4.697,441.72,0,446.417,0,452.212c0,5.795,4.697,10.492,10.492,10.492
				h491.016c5.795,0,10.492-4.697,10.492-10.492C512,446.417,507.303,441.721,501.508,441.721z M364.066,91.295v20.984h-49.549
				c-0.034-7.233-1.815-14.457-5.337-20.984H364.066z M72.393,441.721H51.41v-20.984h20.984V441.721z M253.261,95.793
				c4.459-4.459,10.386-6.914,16.692-6.914c6.306,0,12.233,2.455,16.692,6.914c9.204,9.204,9.204,24.18,0,33.385l-60.223,60.224
				c-7.39-14.518-20.476-25.663-36.304-30.465L253.261,95.793z M133.291,216.672c0-21.694,17.65-39.344,39.344-39.344
				c21.695,0,39.344,17.65,39.344,39.344c0,21.694-17.649,39.344-39.344,39.344C150.94,256.016,133.291,238.366,133.291,216.672z
				 M176.856,276.835c25.395-1.766,46.506-19.307,53.57-42.875l46.013,46.013c13.295,13.295,13.295,34.927,0,48.222
				c-6.441,6.44-15.003,9.987-24.111,9.987c-9.108,0-17.671-3.547-24.111-9.987L176.856,276.835z M286.426,347.33v31.442h-64.809
				v-28.966c9.25,6.217,19.977,9.336,30.711,9.336C264.4,359.141,276.465,355.195,286.426,347.33z M136.398,441.721
				c4.875-23.915,26.072-41.967,51.406-41.967h136.393c25.333,0,46.53,18.052,51.406,41.967H136.398z M460.59,441.721h-20.984
				v-20.984h20.984V441.721z"/>
			<path d="M172.635,206.18c-5.785,0-10.492,4.707-10.492,10.492c0,5.785,4.707,10.492,10.492,10.492
				c5.785,0,10.492-4.707,10.492-10.492C183.127,210.887,178.42,206.18,172.635,206.18z"/>
		</g>
	</g>
</g>
<g>
</g>
<g>
</g>
<g>
</g>
<g>
</g>
<g>
</g>
<g>
</g>
<g>
</g>
<g>
</g>
<g>
</g>
<g>
</g>
<g>
</g>
<g>
</g>
<g>
</g>
<g>
</g>
<g>
</g>
</svg>
