<svg id="Capa_1" enable-background="new 0 0 512 512" height="512" viewBox="0 0 512 512" width="512" xmlns="http://www.w3.org/2000/svg"><g><g><path d="m487.423 276.413c0 22.765-53.015 36.868-59.684 57.41-6.913 21.29 27.444 63.818 14.547 81.539-13.026 17.898-64.174-1.707-82.072 11.319-17.721 12.897-14.805 67.663-36.095 74.576-20.542 6.67-50.286-39.135-73.051-39.135s-52.509 45.805-73.051 39.135c-21.29-6.913-18.374-61.679-36.095-74.576-17.898-13.026-69.047 6.58-82.072-11.319-12.897-17.721 21.459-60.249 14.547-81.539-6.67-20.542-59.684-34.645-59.684-57.41s53.015-36.868 59.684-57.409c6.913-21.29-27.444-63.818-14.547-81.539 13.026-17.898 64.174 1.707 82.072-11.319 17.721-12.897 14.805-67.663 36.095-74.576 20.542-6.67 50.286 39.135 73.051 39.135s52.509-45.805 73.051-39.136c21.29 6.913 18.374 61.68 36.095 74.576 17.898 13.026 69.047-6.58 82.072 11.319 12.897 17.721-21.459 60.249-14.547 81.539 6.669 20.542 59.684 34.645 59.684 57.41z" fill="#f6e06e"/><path d="m487.423 276.414c0-22.765-53.015-36.868-59.684-57.41-6.913-21.29 27.444-63.818 14.547-81.539-6.25-8.588-21.28-8.539-37.2-7.606 3.018 1.091 5.505 2.704 7.227 5.07 11.404 15.67-18.976 53.276-12.863 72.102 5.898 18.165 52.777 30.635 52.777 50.766 0 20.13-46.879 32.601-52.777 50.765-6.113 18.826 24.267 56.432 12.863 72.102-11.518 15.827-56.747-1.509-72.574 10.009-15.67 11.404-13.091 59.832-31.917 65.945-18.164 5.898-44.466-34.606-64.597-34.606-20.13 0-46.432 40.504-64.596 34.606-18.826-6.113-16.248-54.541-31.918-65.945-15.827-11.518-61.055 5.818-72.574-10.009-11.404-15.67 18.976-53.276 12.863-72.102-5.898-18.164-52.777-30.635-52.777-50.766 0-2.488.718-4.858 1.984-7.137-11.7 7.784-21.497 15.969-21.497 25.754 0 22.765 53.015 36.868 59.684 57.41 6.913 21.29-27.444 63.818-14.547 81.539 13.026 17.898 64.174-1.707 82.073 11.319 17.721 12.897 14.805 67.663 36.095 74.576 20.542 6.67 50.286-39.135 73.051-39.135s52.509 45.805 73.051 39.135c21.29-6.913 18.374-61.679 36.095-74.576 17.898-13.026 69.047 6.579 82.072-11.319 12.897-17.721-21.459-60.249-14.547-81.539 6.671-20.542 59.686-34.645 59.686-57.409z" fill="#dda86a"/><ellipse cx="251.067" cy="276.413" fill="#faf1a9" rx="138.179" ry="138.179" transform="matrix(.707 -.707 .707 .707 -121.918 258.491)"/><path d="m251.067 138.235c-4.316 0-8.584.208-12.799.596 57.289 5.856 101.985 54.251 101.985 113.087 0 62.785-50.897 113.682-113.682 113.682-58.836 0-107.231-44.696-113.087-101.985-.387 4.215-.596 8.483-.596 12.799 0 76.314 61.865 138.178 138.179 138.178s138.179-61.865 138.179-138.178c0-76.315-61.865-138.179-138.179-138.179z" fill="#dfb5a7"/><path d="m48.323 17.007 8.262 23.232c.354.995 1.054 1.783 1.938 2.181l20.641 9.299c2.916 1.314 2.916 5.96 0 7.274l-20.641 9.299c-.884.398-1.584 1.186-1.938 2.181l-8.262 23.232c-1.167 3.282-5.295 3.282-6.463 0l-8.262-23.232c-.354-.995-1.054-1.783-1.938-2.181l-20.64-9.299c-2.916-1.314-2.916-5.96 0-7.274l20.64-9.299c.884-.398 1.584-1.187 1.938-2.181l8.262-23.232c1.168-3.282 5.296-3.282 6.463 0z" fill="#faf1a9"/><path d="m482.848 53.475 6.129 17.233c.263.738.782 1.323 1.438 1.618l15.311 6.898c2.163.975 2.163 4.421 0 5.396l-15.311 6.898c-.655.295-1.175.88-1.438 1.618l-6.129 17.233c-.866 2.435-3.928 2.435-4.794 0l-6.129-17.233c-.262-.738-.782-1.323-1.437-1.618l-15.311-6.898c-2.163-.975-2.163-4.421 0-5.396l15.311-6.898c.656-.295 1.175-.88 1.437-1.618l6.129-17.233c.866-2.435 3.928-2.435 4.794 0z" fill="#faf1a9"/><g fill="#f6e06e"><circle cx="402.664" cy="18.041" r="18.041"/><circle cx="241.961" cy="26.068" r="7.782"/></g></g><g><g fill="#3c122c"><path d="m182.352 512c-2.475 0-4.955-.369-7.441-1.176-16.726-5.431-21.929-25.951-26.961-45.797-2.981-11.757-6.691-26.389-11.947-30.214-5.389-3.921-20.596-2.939-32.816-2.15-20.278 1.31-41.247 2.664-51.47-11.383-10.127-13.915-2.431-33.32 5.011-52.087 4.551-11.475 10.214-25.758 8.102-32.265-1.935-5.957-14.52-13.883-24.632-20.253-17.475-11.004-35.545-22.385-35.545-40.261s18.07-29.257 35.544-40.263c10.112-6.369 22.697-14.296 24.632-20.253 2.113-6.507-3.551-20.789-8.102-32.265-7.442-18.766-15.138-38.172-5.011-52.086 10.223-14.048 31.194-12.693 51.471-11.383 12.221.789 27.429 1.771 32.816-2.15 5.256-3.825 8.966-18.457 11.947-30.214 5.032-19.845 10.235-40.366 26.96-45.796 16.119-5.232 32.027 7.954 47.412 20.707 9.64 7.991 21.637 17.937 28.745 17.937s19.105-9.946 28.745-17.937c15.384-12.753 31.294-25.94 47.412-20.707 16.725 5.43 21.929 25.951 26.96 45.796 2.981 11.757 6.691 26.389 11.947 30.214 5.387 3.921 20.595 2.938 32.816 2.15 20.279-1.311 41.248-2.664 51.471 11.383 10.127 13.914 2.431 33.32-5.011 52.086-4.551 11.476-10.214 25.757-8.102 32.264 1.935 5.958 14.52 13.884 24.632 20.254 17.475 11.006 35.544 22.387 35.544 40.263s-18.069 29.257-35.544 40.263c-10.113 6.369-22.698 14.296-24.632 20.253-2.113 6.506 3.551 20.788 8.102 32.264 7.442 18.767 15.138 38.173 5.011 52.087-10.223 14.047-31.193 12.691-51.471 11.383-12.222-.789-27.429-1.771-32.816 2.149-5.256 3.825-8.966 18.457-11.947 30.214-5.031 19.845-10.235 40.366-26.96 45.796-16.124 5.232-32.028-7.954-47.411-20.707-9.64-7.992-21.637-17.937-28.746-17.937-7.108 0-19.106 9.946-28.745 17.937-13.012 10.787-26.399 21.884-39.97 21.884zm-62.804-100.179c10.857 0 20.932 1.371 28.292 6.727 11.132 8.102 15.25 24.341 19.609 41.535 3.168 12.494 7.507 29.605 13.674 31.608 5.59 1.811 18.751-9.095 28.361-17.061 13.383-11.094 27.222-22.566 41.584-22.566s28.201 11.472 41.584 22.566c9.61 7.966 22.772 18.877 28.361 17.061 6.167-2.002 10.506-19.113 13.674-31.607 4.359-17.194 8.477-33.434 19.609-41.535 11.267-8.198 28.9-7.06 45.949-5.959 12.746.824 30.202 1.951 33.909-3.146 3.609-4.959-2.78-21.071-7.445-32.835-6.335-15.975-12.885-32.493-8.535-45.892 4.184-12.885 18.202-21.714 33.045-31.062 11.035-6.95 26.148-16.469 26.148-23.241s-15.113-16.291-26.148-23.241c-14.842-9.347-28.861-18.177-33.045-31.062-4.351-13.399 2.2-29.918 8.535-45.892 4.665-11.764 11.054-27.876 7.445-32.834-3.709-5.096-21.164-3.969-33.909-3.146-17.051 1.102-34.683 2.241-45.949-5.959-11.132-8.102-15.25-24.341-19.609-41.535-3.168-12.494-7.507-29.605-13.674-31.607-5.59-1.817-18.752 9.095-28.361 17.061-13.383 11.094-27.222 22.566-41.584 22.566s-28.201-11.472-41.584-22.567c-9.61-7.966-22.766-18.88-28.361-17.061-6.167 2.002-10.506 19.113-13.674 31.608-4.359 17.193-8.477 33.433-19.609 41.535-11.265 8.199-28.898 7.061-45.949 5.959-12.747-.823-30.2-1.95-33.91 3.146-3.609 4.958 2.78 21.07 7.445 32.834 6.335 15.975 12.885 32.494 8.535 45.893-4.184 12.885-18.202 21.715-33.044 31.062-11.036 6.95-26.149 16.469-26.149 23.241s15.113 16.291 26.149 23.241c14.842 9.348 28.86 18.177 33.044 31.062 4.35 13.399-2.2 29.918-8.535 45.892-4.665 11.764-11.054 27.876-7.445 32.835 3.709 5.096 21.163 3.97 33.909 3.146 5.913-.383 11.895-.77 17.658-.77z"/><path d="m251.067 420.627c-79.519 0-144.213-64.694-144.213-144.213 0-79.52 64.694-144.214 144.213-144.214s144.213 64.694 144.213 144.214c0 79.519-64.694 144.213-144.213 144.213zm0-276.357c-72.864 0-132.144 59.28-132.144 132.144s59.279 132.144 132.144 132.144 132.144-59.279 132.144-132.144-59.28-132.144-132.144-132.144z"/><path d="m297.512 290.593c-3.333 0-6.035-2.702-6.035-6.035v-11.397c0-3.333 2.702-6.035 6.035-6.035s6.035 2.702 6.035 6.035v11.397c0 3.333-2.702 6.035-6.035 6.035z"/><path d="m330.086 316.652c-3.333 0-6.035-2.702-6.035-6.035v-11.397c0-3.333 2.702-6.035 6.035-6.035s6.035 2.702 6.035 6.035v11.396c0 3.333-2.702 6.036-6.035 6.036z"/><path d="m290.183 365.105c-3.333 0-6.035-2.702-6.035-6.035v-11.396c0-3.333 2.702-6.035 6.035-6.035s6.035 2.702 6.035 6.035v11.396c0 3.332-2.702 6.035-6.035 6.035z"/></g><path d="m190.221 207.787c-3.005 0-5.977-1.34-7.959-3.9-3.401-4.392-2.598-10.709 1.794-14.111 3.116-2.413 6.395-4.681 9.746-6.74 4.732-2.909 10.927-1.429 13.835 3.304s1.429 10.927-3.304 13.835c-2.736 1.681-5.414 3.533-7.96 5.505-1.833 1.42-4.001 2.107-6.152 2.107z" fill="#fff"/><path d="m153.521 266.982c-.65 0-1.309-.063-1.971-.195-5.449-1.082-8.988-6.377-7.905-11.825 2.966-14.934 8.917-28.847 17.685-41.354 3.188-4.549 9.462-5.651 14.01-2.462 4.549 3.189 5.651 9.461 2.462 14.01-7.154 10.204-12.007 21.552-14.426 33.727-.951 4.785-5.154 8.099-9.855 8.099z" fill="#fff"/></g></g></svg>