<svg id="Capa_1" enable-background="new 0 0 512 512" height="512" viewBox="0 0 512 512" width="512" xmlns="http://www.w3.org/2000/svg"><g><g><circle cx="246.833" cy="300.324" fill="#96b4eb" r="201.364"/><g fill="#a1e8c3"><path d="m291.725 491.061c-38.457-61.079-106.322-49.768-119.895-61.079-19.833-16.528 14.48-48.787-9.048-64.472-33.933-22.622-96.142 14.704-96.142 14.704s12.025 60.483 81.169 96.438c69.142 35.956 143.916 14.409 143.916 14.409z"/><path d="m58.735 297.301c73.984-5.939 92.092-25.291 93.651-52.392s-65.284-46.809-65.284-46.809-25.955 2.9-34.252 39.776c-8.297 36.877 5.885 59.425 5.885 59.425z"/><path d="m432.688 344.475c-51.781 24.634-156.763 38.236-168.484-21.614-4.001-20.43 12.199-58.365 18.642-67.293 9.856-13.657 10.662-34.48-11.946-39.232-14.836-3.119-35.274-4.187-43.612-27.858-15.999-45.415 64.37-79.415 64.37-79.415s64.436-.312 124.764 82.203c60.33 82.516 16.266 153.209 16.266 153.209z"/></g><path d="m444.833 337.109c2.202-11.927 3.364-24.22 3.364-36.785 0-111.211-90.154-201.364-201.364-201.364-6.141 0-12.212.291-18.213.828 84.113 8.365 149.803 79.334 149.803 165.649 0 38.934-13.369 74.744-35.762 103.097 36.573.978 71.205-12.515 102.172-31.425z" fill="#85adc2"/><path d="m46.297 282.111c-.538 6-.829 12.073-.829 18.213 0 29.104 6.184 56.76 17.295 81.741 6.59-4.266 13.641-7.775 21.008-10.406-20.583-24.806-34.106-55.681-37.474-89.548z" fill="#8286ea"/><path d="m233.356 443.834c-20.623-7.218-44.34-4.125-62.901-15.468-1.015-.609-1.904-1.423-2.671-2.383-33.361-9.157-62.531-28.436-84.012-54.323-7.368 2.63-14.419 6.14-21.008 10.406 31.344 70.476 101.963 119.623 184.07 119.623 17.484 0 34.444-2.239 50.618-6.427-17.14-22.009-37.313-41.294-64.096-51.428z" fill="#85adc2"/><path d="m444.833 337.109c-30.967 18.91-65.599 32.403-102.172 31.424-30.488 38.603-77.707 63.381-130.716 63.381-15.292 0-30.097-2.071-44.163-5.932.767.961 1.657 1.775 2.671 2.383 18.561 11.343 42.278 8.249 62.901 15.468 26.784 10.134 46.957 29.42 64.095 51.427 75.082-19.442 133.161-81.106 147.384-158.151z" fill="#8286ea"/><path d="m44.187 50.955 8.47 23.818c.363 1.02 1.081 1.828 1.987 2.236l21.161 9.534c2.99 1.347 2.99 6.11 0 7.457l-21.161 9.534c-.906.408-1.624 1.216-1.987 2.236l-8.47 23.818c-1.197 3.365-5.429 3.365-6.625 0l-8.471-23.818c-.363-1.02-1.08-1.828-1.987-2.236l-21.16-9.535c-2.989-1.347-2.989-6.11 0-7.457l21.161-9.534c.906-.408 1.624-1.216 1.987-2.236l8.471-23.818c1.196-3.364 5.428-3.364 6.624.001z" fill="#ccf3e2"/><path d="m427.704 1.872 6.283 17.667c.269.756.802 1.356 1.474 1.659l15.697 7.072c2.218.999 2.218 4.532 0 5.532l-15.697 7.072c-.672.303-1.205.902-1.474 1.659l-6.283 17.667c-.888 2.496-4.027 2.496-4.914 0l-6.283-17.667c-.269-.756-.801-1.356-1.474-1.659l-15.697-7.072c-2.218-.999-2.218-4.532 0-5.532l15.697-7.072c.672-.303 1.205-.902 1.474-1.659l6.283-17.667c.887-2.496 4.026-2.496 4.914 0z" fill="#ccf3e2"/><ellipse cx="489.803" cy="146.97" fill="#a1e8c3" rx="18.496" ry="18.496" transform="matrix(.23 -.973 .973 .23 234.23 589.903)"/><path d="m175.849 32.121c0 4.406-3.572 7.979-7.978 7.979s-7.979-3.572-7.979-7.979 3.572-7.979 7.979-7.979c4.406 0 7.978 3.573 7.978 7.979z" fill="#a1e8c3"/></g><g><path d="m246.833 88.648c-116.718 0-211.676 94.958-211.676 211.676s94.957 211.676 211.676 211.676 211.676-94.958 211.676-211.676-94.957-211.676-211.676-211.676zm191.052 211.676c0 13.052-1.319 25.8-3.825 38.124-1.31-.3-2.725-.181-4.03.441-39.591 18.834-103.263 28.614-137.092 11.57-12.534-6.314-20.159-16-22.663-28.786-3.565-18.201 11.556-54.127 17.587-62.483 7.417-10.278 9.702-22.662 5.965-32.319-2.313-5.977-7.948-13.707-21.656-16.589-1.688-.355-3.445-.684-5.249-1.022-13.555-2.536-27.572-5.158-33.8-22.837-13.203-37.478 53.167-68.204 60.326-71.389 82.889 20.862 144.437 96.019 144.437 185.29zm-352.534-96.29c24.023 7.097 61.787 24.373 60.859 40.519-1.187 20.62-12.665 40.535-87.97 46.58-.812.065-1.572.288-2.258.63 1.441-32.501 11.038-62.915 26.794-89.244.698.687 1.57 1.218 2.575 1.515zm-10.791 178.855c14.611-7.775 59.52-29.077 84.789-12.231 7.684 5.123 6.826 11.984 3.038 26.42-3.174 12.097-7.125 27.153 5.482 37.658 5.228 4.357 14.1 5.799 26.378 7.795 25.028 4.068 62.158 10.124 87.967 45.548-11.47 2.157-23.294 3.298-35.381 3.298-75.793 0-141.417-44.365-172.273-108.488zm220.684 102.267c-28.854-43.407-72.639-50.552-99.012-54.839-8.757-1.423-17.812-2.895-20.442-5.087-6.245-5.204-4.613-12.895-1.434-25.011 3.425-13.054 7.688-29.301-8.143-39.856-30.581-20.386-79.519 2.089-96.665 11.155-8.589-21.311-13.436-44.511-13.737-68.79.877.474 1.865.761 2.917.761.166 0 .333-.007.501-.02 68.492-5.499 97.27-22.361 99.334-58.204 1.756-30.516-59.979-50.183-69.23-52.955 34.475-50.112 92.21-83.039 157.499-83.039 9.072 0 17.994.65 26.733 1.879-23.912 13.228-65.203 42.226-52.113 79.385 8.602 24.417 28.597 28.158 43.197 30.889 1.711.32 3.379.631 4.979.968 6.644 1.397 10.905 4.407 12.661 8.946 2.208 5.707.458 13.797-4.459 20.611-6.836 9.473-24.226 48.977-19.697 72.103 3.277 16.732 13.114 29.335 29.238 37.459 14.426 7.268 32.286 10.196 50.992 10.195 32.929-.002 68.46-9.08 92.371-19.54-18.314 64.883-70.124 115.856-135.49 132.99z" fill="#3c122c"/><path d="m141.123 188.866c-2.702 0-5.4-1.055-7.424-3.154-3.953-4.1-3.835-10.627.265-14.58 25.473-24.564 52.643-33.806 53.787-34.187 5.402-1.799 11.242 1.119 13.043 6.522 1.799 5.398-1.113 11.231-6.506 13.038-.502.172-24.176 8.418-46.009 29.472-2 1.929-4.58 2.889-7.156 2.889z" fill="#fff"/><g fill="#3c122c"><path d="m364.9 239.823c-3.417 0-6.187-2.77-6.187-6.187v-11.684c0-3.417 2.77-6.187 6.187-6.187s6.187 2.77 6.187 6.187v11.684c0 3.417-2.77 6.187-6.187 6.187z"/><path d="m339.892 323.295c-3.417 0-6.187-2.77-6.187-6.187v-11.683c0-3.417 2.77-6.187 6.187-6.187s6.187 2.77 6.187 6.187v11.683c0 3.417-2.77 6.187-6.187 6.187z"/><path d="m385.343 298.598c-3.417 0-6.187-2.77-6.187-6.187v-11.684c0-3.417 2.77-6.187 6.187-6.187s6.187 2.77 6.187 6.187v11.684c0 3.417-2.77 6.187-6.187 6.187z"/></g></g></g></svg>