<svg id="Capa_1" enable-background="new 0 0 512 512" height="512" viewBox="0 0 512 512" width="512" xmlns="http://www.w3.org/2000/svg"><g><g><path d="m299.541 399.326c-85.496 0-155.872-71.179-154.945-156.669.92-84.788 69.939-153.238 154.945-153.238h.083c1.625.001 2.029-2.238.506-2.804-22.685-8.441-47.183-13.156-72.753-13.387-118.611-1.071-216.174 95.44-216.335 214.056-.161 118.526 95.874 214.66 214.363 214.66 106.774 0 195.304-78.069 211.649-180.238.255-1.594-1.877-2.357-2.674-.953-26.633 46.917-77.036 78.572-134.839 78.573z" fill="#faf1a9"/><path d="m260.215 84.764c1.313.489.964 2.418-.436 2.417-.024 0-.048 0-.072 0-73.269 0-132.758 58.999-133.551 132.08-.359 33.079 11.673 63.667 31.704 87.34-8.739-19.601-13.51-41.27-13.264-63.945.92-84.788 69.939-153.238 154.945-153.238h.083c1.625.001 2.029-2.238.506-2.804-22.685-8.441-47.183-13.156-72.753-13.387-5.802-.052-11.552.136-17.245.543 17.489 1.343 34.296 5.12 50.083 10.994z" fill="#dfb5a7"/><path d="m434.38 320.754c-24.104 42.461-67.677 72.418-118.586 77.727-32.281 27.599-74.185 44.269-119.987 44.269-97.213 0-176.887-75.078-184.212-170.414-.351 4.94-.547 9.922-.553 14.948-.161 118.526 95.874 214.66 214.363 214.66 106.774 0 195.304-78.069 211.649-180.238.255-1.594-1.877-2.356-2.674-.952z" fill="#dfb5a7"/><path d="m349.014 156.584 15.777 31.969 35.28 5.126c10.005 1.454 13.999 13.749 6.76 20.805l-25.529 24.884 6.026 35.137c1.709 9.964-8.75 17.563-17.698 12.858l-31.555-16.589-31.555 16.589c-8.948 4.705-19.407-2.894-17.698-12.858l6.027-35.137-25.529-24.884c-7.239-7.057-3.245-19.352 6.76-20.805l35.28-5.126 15.777-31.969c4.475-9.065 17.403-9.065 21.877 0z" fill="#f6e06e"/><path d="m405.032 195.451-29.749-4.323c.268 2.513-.506 5.162-2.604 7.207-11.555 11.263-16.828 27.491-14.1 43.396 1.236 7.204-6.326 12.698-12.796 9.297-14.283-7.509-31.346-7.509-45.629 0-.716.377-1.446.627-2.176.796l-4.194 24.454c-1.709 9.964 8.75 17.563 17.698 12.858l31.555-16.589 31.555 16.589c8.948 4.704 19.407-2.894 17.698-12.858l-6.027-35.137 25.529-24.884c7.24-7.057 3.245-19.352-6.76-20.806z" fill="#dda86a"/><path d="m379.005 2.461 8.261 23.228c.354.995 1.054 1.783 1.937 2.181l20.637 9.298c2.915 1.314 2.915 5.959 0 7.272l-20.637 9.298c-.884.398-1.584 1.186-1.937 2.181l-8.261 23.228c-1.167 3.282-5.294 3.282-6.461 0l-8.261-23.228c-.354-.994-1.054-1.783-1.937-2.181l-20.637-9.298c-2.915-1.314-2.915-5.959 0-7.272l20.637-9.298c.884-.398 1.584-1.186 1.937-2.181l8.261-23.228c1.167-3.281 5.294-3.281 6.461 0z" fill="#faf1a9"/><path d="m486.52 112.04 6.128 17.23c.262.738.782 1.322 1.437 1.618l15.308 6.897c2.163.974 2.163 4.42 0 5.395l-15.308 6.897c-.655.295-1.175.88-1.437 1.618l-6.128 17.23c-.866 2.434-3.927 2.434-4.793 0l-6.128-17.23c-.262-.738-.782-1.322-1.437-1.618l-15.308-6.897c-2.163-.974-2.163-4.42 0-5.395l15.308-6.897c.656-.295 1.175-.88 1.437-1.618l6.128-17.23c.866-2.434 3.927-2.434 4.793 0z" fill="#faf1a9"/><g fill="#f6e06e"><circle cx="43.662" cy="59.143" r="18.038"/><path d="m480.59 246.177c0 4.297-3.484 7.781-7.781 7.781s-7.781-3.484-7.781-7.781 3.484-7.781 7.781-7.781 7.781 3.484 7.781 7.781z"/></g></g><g><g fill="#3c122c"><path d="m225.405 512c-60.002 0-116.397-23.382-158.796-65.839-42.4-42.456-65.705-98.885-65.623-158.891.081-60.054 23.773-116.53 66.709-159.023 42.95-42.507 99.668-65.645 159.773-65.076 26.178.236 51.806 4.953 76.169 14.018 5.228 1.945 8.306 7.338 7.317 12.824-.989 5.483-5.753 9.462-11.329 9.462-.003 0-.005 0-.007 0-79.112 0-144.109 64.28-144.967 143.291-.419 38.652 14.559 75.313 42.174 103.23 27.605 27.906 64.083 43.274 102.715 43.274 52.049 0 100.364-28.156 126.093-73.48 2.75-4.842 8.554-7.017 13.802-5.174 5.255 1.845 8.429 7.179 7.547 12.682-8.337 52.108-35.073 99.862-75.284 134.465-40.645 34.974-92.601 54.237-146.293 54.237zm.001-428.726c-53.986 0-104.898 21.002-143.563 59.268-39.097 38.694-60.67 90.102-60.744 144.755-.074 54.629 21.143 106.001 59.742 144.652 38.599 38.652 89.94 59.938 144.565 59.938 86.523 0 161.203-53.058 190.815-130.878-30.572 30.512-72.442 48.372-116.678 48.372-44.045.001-85.601-17.487-117.013-49.242-31.423-31.766-48.465-73.528-47.987-117.592.474-43.693 17.848-84.695 48.922-115.453 20.259-20.053 44.817-34.237 71.574-41.688-9.146-1.329-18.409-2.039-27.75-2.124-.627-.005-1.26-.008-1.883-.008z"/><path d="m78.326 352.763c-14.917 0-29.117-11.443-33.653-28.375-5.293-19.761 4.555-39.63 21.952-44.29 8.6-2.302 17.661-.61 25.514 4.768 7.564 5.18 13.118 13.214 15.637 22.62 2.52 9.407 1.725 19.14-2.238 27.408-4.113 8.584-11.115 14.579-19.715 16.883-2.489.666-5.004.986-7.497.986zm-4.151-61.59c-1.492 0-2.974.192-4.427.581-10.97 2.938-16.989 16.177-13.417 29.511s15.405 21.794 26.372 18.853c5.143-1.377 9.389-5.085 11.955-10.441 2.718-5.672 3.238-12.445 1.463-19.071-1.775-6.625-5.61-12.232-10.799-15.786-3.516-2.406-7.358-3.647-11.147-3.647z"/><path d="m158.354 430.485c-7.88.001-16.088-3.636-22.007-10.55-4.758-5.557-7.375-12.424-7.371-19.335.004-7.262 2.862-13.706 8.048-18.145 5.185-4.439 11.996-6.271 19.168-5.156 6.83 1.061 13.211 4.706 17.968 10.263 4.758 5.556 7.376 12.423 7.372 19.335-.004 7.262-2.862 13.706-8.047 18.146-4.288 3.668-9.63 5.442-15.131 5.442zm-6.18-41.432c-2.796 0-5.335.883-7.304 2.569-2.467 2.112-3.826 5.303-3.828 8.985-.003 4.033 1.585 8.11 4.47 11.48 5.725 6.686 14.751 8.385 20.122 3.788 2.466-2.112 3.826-5.303 3.828-8.986.002-4.033-1.586-8.109-4.471-11.479 0 0 0 0 0-.001-2.885-3.37-6.669-5.567-10.654-6.186-.733-.113-1.456-.17-2.163-.17z"/></g><path d="m60.911 240.544c-.742 0-1.495-.083-2.25-.255-5.414-1.237-8.8-6.63-7.562-12.044 6.184-27.054 21.452-44.745 22.099-45.485 3.656-4.181 10.008-4.607 14.19-.951 4.174 3.65 4.605 9.987.97 14.169-.224.262-12.663 14.922-17.652 36.75-1.066 4.658-5.21 7.816-9.795 7.816z" fill="#fff"/><path d="m300.823 298.846c-4.594 0-9.158-1.44-13.059-4.273-6.904-5.015-10.296-13.355-8.854-21.766l5.133-29.927-21.743-21.193c-6.109-5.956-8.268-14.697-5.631-22.812s9.52-13.919 17.964-15.146l30.048-4.366 13.438-27.228c3.777-7.652 11.423-12.405 19.956-12.405s16.179 4.753 19.955 12.405h.001l13.438 27.228 30.047 4.366c8.445 1.227 15.328 7.031 17.965 15.146s.478 16.857-5.632 22.812l-21.742 21.193 5.133 29.927c1.442 8.41-1.95 16.75-8.854 21.766s-15.883 5.664-23.436 1.693l-26.875-14.129-26.875 14.129c-3.284 1.727-6.84 2.58-10.377 2.58zm37.253-139.005c-.884 0-1.53.402-1.921 1.194l-15.777 31.969c-1.465 2.968-4.297 5.025-7.573 5.501l-35.28 5.126c-.873.127-1.454.617-1.728 1.457-.273.84-.091 1.579.541 2.195l25.53 24.884c2.37 2.311 3.451 5.639 2.892 8.901l-6.027 35.138c-.149.87.138 1.575.852 2.094.715.518 1.472.574 2.254.163l31.556-16.59c2.93-1.54 6.428-1.54 9.359 0l31.555 16.589c.779.411 1.538.357 2.255-.162.714-.52 1.001-1.224.851-2.094l-6.027-35.138c-.559-3.262.522-6.591 2.892-8.901l25.529-24.884c.633-.616.815-1.355.542-2.195s-.854-1.33-1.728-1.457l-35.279-5.126c-3.276-.476-6.107-2.533-7.573-5.501l-15.778-31.969c-.388-.792-1.033-1.194-1.917-1.194z" fill="#3c122c"/></g></g></svg>